<?xml version="1.0" encoding="UTF-8"?>
<svg id="_レイヤー_1" data-name="レイヤー 1" xmlns="http://www.w3.org/2000/svg" viewBox="0 0 306.06 217.55">
  <defs>
    <style>
      .cls-1 {
        stroke: #ccc;
      }

      .cls-1, .cls-2, .cls-3 {
        stroke-miterlimit: 10;
      }

      .cls-1, .cls-3 {
        fill: none;
      }

      .cls-2 {
        fill: aqua;
      }

      .cls-2, .cls-3 {
        stroke: aqua;
      }

      .cls-3 {
        stroke-width: 4px;
      }

      .cls-4 {
        fill: #b3b3b3;
      }
    </style>
  </defs>
  <g>
    <g>
      <polygon class="cls-4" points="273.2 41.92 305.59 144.63 149.26 216.93 148.91 216.18 151.25 80.26 273.2 41.92"/>
      <polygon class="cls-4" points="273.2 41.92 151.25 80.26 35.16 29.06 152.73 .49 273.2 41.92"/>
      <polygon class="cls-4" points="151.25 80.26 148.91 216.18 .25 136.62 .61 135.77 35.16 29.06 151.25 80.26"/>
    </g>
    <g>
      <line class="cls-1" x1="35.16" y1="29.06" x2=".61" y2="135.77"/>
      <line class="cls-1" x1=".25" y1="136.62" x2="148.91" y2="216.18"/>
      <line class="cls-1" x1="151.25" y1="80.26" x2="35.16" y2="29.06"/>
      <line class="cls-1" x1="148.91" y1="216.18" x2="151.25" y2="80.26"/>
      <line class="cls-1" x1="273.2" y1="41.92" x2="151.25" y2="80.26"/>
      <line class="cls-1" x1="305.59" y1="144.63" x2="273.2" y2="41.92"/>
      <polyline class="cls-1" points="148.91 217.1 149.26 216.93 305.59 144.63"/>
      <line class="cls-1" x1="152.73" y1=".49" x2="273.2" y2="41.92"/>
      <line class="cls-1" x1="152.73" y1=".49" x2="35.16" y2="29.06"/>
    </g>
  </g>
  <g>
    <line class="cls-3" x1="86.1" y1="30.23" x2="119.97" y2="22"/>
    <line class="cls-3" x1="155.68" y1="60.92" x2="86.1" y2="30.23"/>
    <line class="cls-3" x1="224.32" y1="40.72" x2="154.45" y2="60.92"/>
    <line class="cls-3" x1="224.32" y1="41.22" x2="198.07" y2="32.19"/>
    <path class="cls-2" d="M167.62,24.24s-20.08-4.1-28.79,0c-8.7,4.1,7.85-6.02,3.19-9.13s11.8,5.35,23.8.19c12-5.15-13.25,5.77,1.79,8.94Z"/>
    <path class="cls-2" d="M169.51,46.26s-18.64-3.8-26.72,0c-8.08,3.8,7.29-5.59,2.96-8.48-4.32-2.88,10.96,4.96,22.1.18,11.14-4.78-12.3,5.36,1.66,8.3Z"/>
    <path class="cls-2" d="M134.59,37.59s-10.53-2.15-15.09,0,4.12-3.16,1.67-4.79c-2.44-1.63,6.19,2.8,12.48.1,6.29-2.7-6.94,3.03.94,4.69Z"/>
  </g>
</svg>